<?xml version="1.0" encoding="utf-8"?>
<!-- Generator: Adobe Illustrator 19.2.1, SVG Export Plug-In . SVG Version: 6.00 Build 0)  -->
<svg version="1.1" id="Layer_1" xmlns="http://www.w3.org/2000/svg" xmlns:xlink="http://www.w3.org/1999/xlink" x="0px" y="0px"
	 viewBox="0 0 1200 800" style="enable-background:new 0 0 1200 800;" xml:space="preserve">
<style type="text/css">
	.st0{fill:#64C8BE;}
	.st1{opacity:0.6;}
	.st2{clip-path:url(#SVGID_2_);}
	.st3{fill:none;}
	.st4{clip-path:url(#SVGID_4_);}
	.st5{fill:#DDEAE9;}
	.st6{fill:#EFF9F8;}
	.st7{fill:#F5FBFA;}
	.st8{clip-path:url(#SVGID_6_);}
	.st9{clip-path:url(#SVGID_8_);}
	.st10{clip-path:url(#SVGID_10_);}
	.st11{clip-path:url(#SVGID_12_);}
	.st12{clip-path:url(#SVGID_14_);}
	.st13{clip-path:url(#SVGID_16_);}
	.st14{clip-path:url(#SVGID_18_);}
	.st15{clip-path:url(#SVGID_20_);}
	.st16{clip-path:url(#SVGID_22_);}
	.st17{clip-path:url(#SVGID_24_);}
	.st18{clip-path:url(#SVGID_26_);}
	.st19{clip-path:url(#SVGID_28_);}
	.st20{clip-path:url(#SVGID_30_);}
	.st21{clip-path:url(#SVGID_32_);}
	.st22{clip-path:url(#SVGID_34_);}
	.st23{clip-path:url(#SVGID_36_);}
	.st24{clip-path:url(#SVGID_38_);}
	.st25{clip-path:url(#SVGID_40_);}
	.st26{clip-path:url(#SVGID_42_);}
	.st27{fill:url(#SVGID_43_);}
	.st28{fill:#FFFFFF;}
	.st29{font-family:'Prototype';}
	.st30{font-size:67.5933px;}
</style>
<rect class="st0" width="1200" height="800"/>
<g class="st1">
	<g>
		<g>
			<defs>
				<rect id="SVGID_1_" width="1200" height="800"/>
			</defs>
			<clipPath id="SVGID_2_">
				<use xlink:href="#SVGID_1_"  style="overflow:visible;"/>
			</clipPath>
			<g class="st2">
				<g>
					
						<rect x="1006.6" y="628.9" transform="matrix(0.8554 -0.518 0.518 0.8554 -194.5574 638.8185)" class="st3" width="80.5" height="77.9"/>
					<g>
						<g>
							<defs>
								<path id="SVGID_3_" d="M1086.5,686.7c1.4-0.9,2.1-3,1.7-4.6L1076,640c-0.5-1.6-2.2-3-3.9-3l-43.8-1.6
									c-1.7-0.1-3.5,1.2-4.1,2.7l-14.9,41.1c-0.6,1.6,0,3.7,1.4,4.7l34.6,27c1.3,1,3.5,1.1,4.9,0.2L1086.5,686.7z"/>
							</defs>
							<clipPath id="SVGID_4_">
								<use xlink:href="#SVGID_3_"  style="overflow:visible;"/>
							</clipPath>
							<g class="st4">
								<polygon class="st5" points="1008.3,682.1 1089,685 1047.6,712.8 								"/>
								<polygon class="st6" points="1025.3,635.3 1089,685 1008.3,682.1 								"/>
								<polygon class="st7" points="1075.2,637.1 1089,685 1025.3,635.3 								"/>
							</g>
						</g>
					</g>
					
						<rect x="1148.4" y="655.6" transform="matrix(0.9965 -8.403474e-02 8.403474e-02 0.9965 -51.5795 99.3984)" class="st3" width="13.1" height="13.6"/>
					<g>
						<g>
							<defs>
								<path id="SVGID_5_" d="M1160.8,657.9c0-0.3-0.3-0.5-0.6-0.6l-7.3-1.3c-0.3-0.1-0.6,0.1-0.7,0.4l-3.5,6.5
									c-0.1,0.2-0.1,0.6,0.1,0.8l5.1,5.3c0.2,0.2,0.6,0.3,0.8,0.1l6.7-3.2c0.3-0.1,0.4-0.4,0.4-0.7L1160.8,657.9z"/>
							</defs>
							<clipPath id="SVGID_6_">
								<use xlink:href="#SVGID_5_"  style="overflow:visible;"/>
							</clipPath>
							<g class="st8">
								<polygon class="st5" points="1154.2,669.3 1160.7,657.4 1161.8,665.7 								"/>
								<polygon class="st6" points="1148.4,663.3 1160.7,657.4 1154.2,669.3 								"/>
								<polygon class="st7" points="1152.5,655.9 1160.7,657.4 1148.4,663.3 								"/>
							</g>
						</g>
					</g>
					
						<rect x="956.6" y="719.2" transform="matrix(0.305 -0.9523 0.9523 0.305 -28.9537 1461.8857)" class="st3" width="61.1" height="63.2"/>
					<g>
						<g>
							<defs>
								<path id="SVGID_7_" d="M977.8,717.6c-1.3-0.3-2.9,0.3-3.6,1.4l-18.7,28.9c-0.7,1.1-0.6,2.8,0.2,3.8l21.6,26.7
									c0.8,1,2.5,1.5,3.7,1l32-12.3c1.2-0.5,2.2-1.9,2.1-3.2l-1.8-34.4c-0.1-1.3-1.2-2.7-2.4-3L977.8,717.6z"/>
							</defs>
							<clipPath id="SVGID_8_">
								<use xlink:href="#SVGID_7_"  style="overflow:visible;"/>
							</clipPath>
							<g class="st9">
								<polygon class="st5" points="1015.3,766.3 975.5,717 1013.3,727.1 								"/>
								<polygon class="st6" points="978.9,780.3 975.5,717 1015.3,766.3 								"/>
								<polygon class="st7" points="954.3,749.9 975.5,717 978.9,780.3 								"/>
							</g>
						</g>
					</g>
					<g>
						
							<rect x="807" y="576.6" transform="matrix(0.7781 -0.6282 0.6282 0.7781 -195.5334 659.8516)" class="st3" width="58.1" height="60.1"/>
						<g>
							<g>
								<defs>
									<path id="SVGID_9_" d="M846.1,575.4c-0.8-0.9-2.4-1.3-3.6-0.8l-29.9,13.2c-1.1,0.5-2,1.9-1.8,3.2l3.2,32.5
										c0.1,1.2,1.2,2.5,2.4,2.7l31.9,6.9c1.2,0.3,2.7-0.4,3.4-1.5l16.5-28.3c0.6-1.1,0.5-2.7-0.4-3.6L846.1,575.4z"/>
								</defs>
								<clipPath id="SVGID_10_">
									<use xlink:href="#SVGID_9_"  style="overflow:visible;"/>
								</clipPath>
								<g class="st10">
									<polygon class="st5" points="850.5,633.6 844.6,573.7 869.3,601.5 									"/>
									<polygon class="st6" points="814.2,625.7 844.6,573.7 850.5,633.6 									"/>
									<polygon class="st7" points="810.6,588.7 844.6,573.7 814.2,625.7 									"/>
								</g>
							</g>
						</g>
						<g>
							
								<rect x="769.1" y="696.6" transform="matrix(0.8806 -0.4739 0.4739 0.8806 -242.2633 454.0758)" class="st3" width="21.5" height="22.2"/>
							<g>
								<g>
									<defs>
										<path id="SVGID_11_" d="M785.7,697.1c-0.2-0.4-0.8-0.6-1.2-0.5l-11.8,2.8c-0.4,0.1-0.8,0.6-0.9,1l-1.1,12
											c0,0.5,0.3,1,0.7,1.2l11.1,4.7c0.4,0.2,1,0,1.3-0.3l7.9-9.1c0.3-0.3,0.4-1,0.1-1.3L785.7,697.1z"/>
									</defs>
									<clipPath id="SVGID_12_">
										<use xlink:href="#SVGID_11_"  style="overflow:visible;"/>
									</clipPath>
									<g class="st11">
										<polygon class="st5" points="783.3,718.6 785.2,696.4 792.3,708.2 										"/>
										<polygon class="st6" points="770.6,713.2 785.2,696.4 783.3,718.6 										"/>
										<polygon class="st7" points="771.8,699.5 785.2,696.4 770.6,713.2 										"/>
									</g>
								</g>
							</g>
							<g>
								
									<rect x="587.3" y="615.2" transform="matrix(0.5548 -0.832 0.832 0.5548 -264.1689 805.4288)" class="st3" width="66.4" height="68.6"/>
								<g>
									<g>
										<defs>
											<path id="SVGID_13_" d="M620.3,687.1c1.2,0.7,3.1,0.6,4.2-0.4l28.1-24.6c1.1-0.9,1.5-2.8,0.9-4.1l-14.6-34.4
												c-0.6-1.3-2.2-2.3-3.6-2.1l-37.1,3.3c-1.4,0.1-2.8,1.4-3.2,2.8l-8.4,36.5c-0.3,1.4,0.4,3.1,1.6,3.9L620.3,687.1z"/>
										</defs>
										<clipPath id="SVGID_14_">
											<use xlink:href="#SVGID_13_"  style="overflow:visible;"/>
										</clipPath>
										<g class="st12">
											<polygon class="st5" points="595.6,625.1 622.5,688.5 586.1,666.6 											"/>
											<polygon class="st6" points="637.9,621.3 622.5,688.5 595.6,625.1 											"/>
											<polygon class="st7" points="654.5,660.4 622.5,688.5 637.9,621.3 											"/>
										</g>
									</g>
								</g>
								<g>
									
										<rect x="861.8" y="674.1" transform="matrix(0.8513 -0.5246 0.5246 0.8513 -237.5394 573.0257)" class="st3" width="61.1" height="63.1"/>
									<g>
										<g>
											<defs>
												<path id="SVGID_15_" d="M877.7,736.9c0.7,1.1,2.4,1.7,3.6,1.3l32.9-9.8c1.3-0.4,2.3-1.7,2.3-3.1l1-34.4
													c0-1.3-0.9-2.7-2.2-3.2L883,676.2c-1.2-0.4-2.9,0.1-3.7,1.1l-21,27.3c-0.8,1-0.8,2.8-0.1,3.8L877.7,736.9z"/>
											</defs>
											<clipPath id="SVGID_16_">
												<use xlink:href="#SVGID_15_"  style="overflow:visible;"/>
											</clipPath>
											<g class="st13">
												<polygon class="st5" points="880.9,675.6 879.1,738.9 857,706.6 												"/>
												<polygon class="st6" points="917.7,688.6 879.1,738.9 880.9,675.6 												"/>
												<polygon class="st7" points="916.6,727.7 879.1,738.9 917.7,688.6 												"/>
											</g>
										</g>
									</g>
									
										<rect x="955.9" y="637.1" transform="matrix(0.1461 -0.9893 0.9893 0.1461 179.4953 1561.9498)" class="st3" width="77.2" height="79.7"/>
									<g>
										<g>
											<defs>
												<path id="SVGID_17_" d="M1012.9,716.5c1.6,0.2,3.5-0.9,4.2-2.5l17.3-39.8c0.7-1.5,0.2-3.7-1-4.8l-32.4-28.9
													c-1.2-1.1-3.4-1.3-4.8-0.5l-37.3,21.9c-1.4,0.8-2.3,2.8-1.9,4.5l9.3,42.4c0.4,1.6,2,3.1,3.6,3.2L1012.9,716.5z"/>
											</defs>
											<clipPath id="SVGID_18_">
												<use xlink:href="#SVGID_17_"  style="overflow:visible;"/>
											</clipPath>
											<g class="st14">
												<polygon class="st5" points="956.2,663.6 1015.9,716.8 966.8,711.9 												"/>
												<polygon class="st6" points="998.7,638.7 1015.9,716.8 956.2,663.6 												"/>
												<polygon class="st7" points="1035.6,671.5 1015.9,716.8 998.7,638.7 												"/>
											</g>
										</g>
									</g>
									
										<rect x="942.8" y="499" transform="matrix(0.9591 -0.283 0.283 0.9591 -110.2582 297.0157)" class="st3" width="60.3" height="62.3"/>
									<g>
										<g>
											<defs>
												<path id="SVGID_19_" d="M951,556.2c0.4,1.2,1.8,2.2,3.1,2.2l33.9-0.8c1.3,0,2.7-1.1,3-2.3l9.8-32.5
													c0.4-1.2-0.2-2.8-1.2-3.6l-27.8-19.3c-1.1-0.7-2.8-0.7-3.8,0.1l-27,20.5c-1,0.8-1.5,2.4-1.1,3.6L951,556.2z"/>
											</defs>
											<clipPath id="SVGID_20_">
												<use xlink:href="#SVGID_19_"  style="overflow:visible;"/>
											</clipPath>
											<g class="st15">
												<polygon class="st5" points="969.8,498.6 951.7,558.4 939.1,522 												"/>
												<polygon class="st6" points="1001.5,520.5 951.7,558.4 969.8,498.6 												"/>
												<polygon class="st7" points="990.3,557.5 951.7,558.4 1001.5,520.5 												"/>
											</g>
										</g>
									</g>
									
										<rect x="1065.5" y="490.4" transform="matrix(0.4942 -0.8693 0.8693 0.4942 104.7102 1202.3937)" class="st3" width="40.3" height="41.7"/>
									<g>
										<g>
											<defs>
												<path id="SVGID_21_" d="M1087.2,533.8c0.8,0.4,1.9,0.2,2.5-0.4l16-16.1c0.6-0.6,0.8-1.7,0.4-2.5l-10.3-20.2
													c-0.4-0.8-1.4-1.3-2.3-1.1l-22.3,3.6c-0.9,0.1-1.7,0.9-1.8,1.8l-3.5,22.5c-0.1,0.9,0.4,1.9,1.2,2.3L1087.2,533.8z"/>
											</defs>
											<clipPath id="SVGID_22_">
												<use xlink:href="#SVGID_21_"  style="overflow:visible;"/>
											</clipPath>
											<g class="st16">
												<polygon class="st5" points="1069.6,497.3 1088.6,534.5 1065.6,522.9 												"/>
												<polygon class="st6" points="1095,493.2 1088.6,534.5 1069.6,497.3 												"/>
												<polygon class="st7" points="1106.8,516.2 1088.6,534.5 1095,493.2 												"/>
											</g>
										</g>
									</g>
									
										<rect x="980.1" y="251.9" transform="matrix(0.7029 -0.7113 0.7113 0.7029 103.5892 791.4911)" class="st3" width="38.3" height="39.6"/>
									<g>
										<g>
											<defs>
												<path id="SVGID_23_" d="M995,293c0.6,0.5,1.7,0.7,2.4,0.2l18.6-10.8c0.7-0.4,1.1-1.4,1-2.2l-4.5-21.1
													c-0.2-0.8-1-1.5-1.8-1.6l-21.4-2.2c-0.8-0.1-1.8,0.5-2.1,1.2l-8.7,19.7c-0.3,0.7-0.1,1.8,0.5,2.4L995,293z"/>
											</defs>
											<clipPath id="SVGID_24_">
												<use xlink:href="#SVGID_23_"  style="overflow:visible;"/>
											</clipPath>
											<g class="st17">
												<polygon class="st5" points="987.8,255.2 996.1,294 977.9,277.6 												"/>
												<polygon class="st6" points="1012.2,257.7 996.1,294 987.8,255.2 												"/>
												<polygon class="st7" points="1017.3,281.7 996.1,294 1012.2,257.7 												"/>
											</g>
										</g>
									</g>
									
										<rect x="1118.7" y="135.3" transform="matrix(0.5268 -0.85 0.85 0.5268 403.7544 1050.0996)" class="st3" width="52.5" height="54.2"/>
									<g>
										<g>
											<defs>
												<path id="SVGID_25_" d="M1145.8,192c1,0.5,2.5,0.4,3.3-0.4l21.6-20.2c0.8-0.8,1.1-2.2,0.6-3.2l-12.4-26.8
													c-0.5-1-1.8-1.7-2.9-1.6l-29.2,3.6c-1.1,0.1-2.2,1.2-2.4,2.3l-5.6,29c-0.2,1.1,0.4,2.5,1.4,3L1145.8,192z"/>
											</defs>
											<clipPath id="SVGID_26_">
												<use xlink:href="#SVGID_25_"  style="overflow:visible;"/>
											</clipPath>
											<g class="st18">
												<polygon class="st5" points="1124.6,143.7 1147.6,193 1118.2,176.7 												"/>
												<polygon class="st6" points="1157.9,139.6 1147.6,193 1124.6,143.7 												"/>
												<polygon class="st7" points="1172.1,170.1 1147.6,193 1157.9,139.6 												"/>
											</g>
										</g>
									</g>
									
										<rect x="1150.8" y="270.2" transform="matrix(0.6628 -0.7488 0.7488 0.6628 177.7717 972.8064)" class="st3" width="36.5" height="37.7"/>
									<g>
										<g>
											<defs>
												<path id="SVGID_27_" d="M1171.9,268.6c-0.6-0.5-1.6-0.5-2.3-0.1l-17.1,11.3c-0.7,0.4-1,1.4-0.8,2.2l5.4,19.8
													c0.2,0.8,1,1.4,1.8,1.4l20.5,1c0.8,0,1.6-0.5,1.9-1.3l7.3-19.2c0.3-0.7,0-1.7-0.6-2.2L1171.9,268.6z"/>
											</defs>
											<clipPath id="SVGID_28_">
												<use xlink:href="#SVGID_27_"  style="overflow:visible;"/>
											</clipPath>
											<g class="st19">
												<polygon class="st5" points="1180.7,304.2 1170.8,267.7 1189,282.3 												"/>
												<polygon class="st6" points="1157.4,303.1 1170.8,267.7 1180.7,304.2 												"/>
												<polygon class="st7" points="1151.3,280.6 1170.8,267.7 1157.4,303.1 												"/>
											</g>
										</g>
									</g>
									
										<rect x="1083.7" y="323.6" transform="matrix(0.3144 -0.9493 0.9493 0.3144 434.2743 1259.0905)" class="st3" width="10.2" height="10.5"/>
									<g>
										<g>
											<defs>
												<path id="SVGID_29_" d="M1087.4,323.4c-0.2-0.1-0.5,0-0.6,0.2l-3.1,4.8c-0.1,0.2-0.1,0.5,0,0.6l3.5,4.5
													c0.1,0.2,0.4,0.2,0.6,0.2l5.3-2c0.2-0.1,0.4-0.3,0.4-0.5l-0.2-5.7c0-0.2-0.2-0.4-0.4-0.5L1087.4,323.4z"/>
											</defs>
											<clipPath id="SVGID_30_">
												<use xlink:href="#SVGID_29_"  style="overflow:visible;"/>
											</clipPath>
											<g class="st20">
												<polygon class="st5" points="1093.5,331.5 1087,323.3 1093.3,325 												"/>
												<polygon class="st6" points="1087.5,333.8 1087,323.3 1093.5,331.5 												"/>
												<polygon class="st7" points="1083.4,328.7 1087,323.3 1087.5,333.8 												"/>
											</g>
										</g>
									</g>
									
										<rect x="1009.4" y="411.6" transform="matrix(0.8989 -0.4381 0.4381 0.8989 -90.7301 503.0177)" class="st3" width="70.7" height="73.1"/>
									<g>
										<g>
											<defs>
												<path id="SVGID_31_" d="M1065.1,413.8c-0.7-1.3-2.5-2.2-4-1.9l-39.1,7.5c-1.5,0.3-2.9,1.7-3.1,3.2l-5.1,39.5
													c-0.2,1.5,0.8,3.3,2.1,3.9l35.9,16.9c1.4,0.6,3.3,0.3,4.4-0.8l27.3-29c1-1.1,1.3-3.1,0.6-4.4L1065.1,413.8z"/>
											</defs>
											<clipPath id="SVGID_32_">
												<use xlink:href="#SVGID_31_"  style="overflow:visible;"/>
											</clipPath>
											<g class="st21">
												<polygon class="st5" points="1054.4,484.1 1063.8,411.4 1085.5,451 												"/>
												<polygon class="st6" points="1013.5,464.8 1063.8,411.4 1054.4,484.1 												"/>
												<polygon class="st7" points="1019.3,419.9 1063.8,411.4 1013.5,464.8 												"/>
											</g>
										</g>
									</g>
									<g>
										
											<rect x="901.9" y="401" transform="matrix(0.9998 -1.810866e-02 1.810866e-02 0.9998 -7.6991 16.9755)" class="st3" width="63.1" height="65.2"/>
										<g>
											<g>
												<defs>
													<path id="SVGID_33_" d="M962.8,413.5c-0.1-1.3-1.2-2.7-2.5-3l-34.4-8.6c-1.3-0.3-3,0.3-3.7,1.5l-18.9,30
														c-0.7,1.1-0.6,2.9,0.3,4l22.7,27.2c0.9,1,2.6,1.5,3.9,1l33-13.2c1.3-0.5,2.2-2,2.1-3.4L962.8,413.5z"/>
												</defs>
												<clipPath id="SVGID_34_">
													<use xlink:href="#SVGID_33_"  style="overflow:visible;"/>
												</clipPath>
												<g class="st22">
													<polygon class="st5" points="927.8,466.3 962.7,411.1 965.3,451.3 													"/>
													<polygon class="st6" points="901.9,435.4 962.7,411.1 927.8,466.3 													"/>
													<polygon class="st7" points="923.5,401.2 962.7,411.1 901.9,435.4 													"/>
												</g>
											</g>
										</g>
										<g>
											
												<rect x="867" y="520" transform="matrix(0.7397 -0.6729 0.6729 0.7397 -130.0154 731.296)" class="st3" width="26.7" height="27.5"/>
											<g>
												<g>
													<defs>
														<path id="SVGID_35_" d="M884,519.1c-0.4-0.4-1.1-0.5-1.7-0.3l-13.3,6.8c-0.5,0.3-0.8,0.9-0.8,1.5l2.3,14.8
															c0.1,0.6,0.6,1.1,1.2,1.2l14.8,2.3c0.6,0.1,1.2-0.3,1.5-0.8l6.8-13.4c0.3-0.5,0.1-1.3-0.3-1.7L884,519.1z"/>
													</defs>
													<clipPath id="SVGID_36_">
														<use xlink:href="#SVGID_35_"  style="overflow:visible;"/>
													</clipPath>
													<g class="st23">
														<polygon class="st5" points="887.6,545.7 883.2,518.4 895.3,530.4 														"/>
														<polygon class="st6" points="870.7,543 883.2,518.4 887.6,545.7 														"/>
														<polygon class="st7" points="868.1,526.2 883.2,518.4 870.7,543 														"/>
													</g>
												</g>
											</g>
											
												<rect x="680" y="357.2" transform="matrix(0.6931 -0.7208 0.7208 0.6931 -55.3421 615.3354)" class="st3" width="30" height="31"/>
											<g>
												<g>
													<defs>
														<path id="SVGID_37_" d="M698.1,356c-0.5-0.4-1.3-0.5-1.9-0.2l-14.4,8.7c-0.6,0.3-0.9,1.1-0.7,1.7l3.7,16.4
															c0.1,0.6,0.8,1.2,1.4,1.2l16.8,1.5c0.6,0.1,1.4-0.4,1.6-1l6.6-15.5c0.3-0.6,0.1-1.4-0.4-1.8L698.1,356z"/>
													</defs>
													<clipPath id="SVGID_38_">
														<use xlink:href="#SVGID_37_"  style="overflow:visible;"/>
													</clipPath>
													<g class="st24">
														<polygon class="st5" points="704.1,385.6 697.2,355.3 711.6,367.9 														"/>
														<polygon class="st6" points="685,383.9 697.2,355.3 704.1,385.6 														"/>
														<polygon class="st7" points="680.7,365.2 697.2,355.3 685,383.9 														"/>
													</g>
												</g>
											</g>
											
												<rect x="584.7" y="378.9" transform="matrix(0.9555 -0.295 0.295 0.9555 -90.8832 196.0704)" class="st3" width="39.4" height="40.7"/>
											<g>
												<g>
													<defs>
														<path id="SVGID_39_" d="M618.5,382c-0.3-0.8-1.2-1.4-2.1-1.4l-22.2,0.8c-0.8,0-1.7,0.7-2,1.5l-6.2,21.3
															c-0.2,0.8,0.1,1.9,0.8,2.3l18.3,12.4c0.7,0.5,1.8,0.4,2.5-0.1l17.5-13.7c0.7-0.5,1-1.6,0.7-2.4L618.5,382z"/>
													</defs>
													<clipPath id="SVGID_40_">
														<use xlink:href="#SVGID_39_"  style="overflow:visible;"/>
													</clipPath>
													<g class="st25">
														<polygon class="st5" points="606.6,419.8 618,380.6 626.6,404.3 														"/>
														<polygon class="st6" points="585.7,405.7 618,380.6 606.6,419.8 														"/>
														<polygon class="st7" points="592.7,381.5 618,380.6 585.7,405.7 														"/>
													</g>
												</g>
											</g>
											<g>
												
													<rect x="523.6" y="479.7" transform="matrix(0.267 -0.9637 0.9637 0.267 -85.3119 901.2645)" class="st3" width="52.4" height="54.1"/>
												<g>
													<g>
														<defs>
															<path id="SVGID_41_" d="M540.7,478.6c-1.1-0.2-2.5,0.3-3,1.3l-15,25.4c-0.6,1-0.4,2.4,0.3,3.3l19.4,22.2
																c0.7,0.8,2.2,1.2,3.2,0.7l27-11.7c1-0.4,1.8-1.7,1.7-2.8l-2.7-29.4c-0.1-1.1-1.1-2.2-2.2-2.5L540.7,478.6z"/>
														</defs>
														<clipPath id="SVGID_42_">
															<use xlink:href="#SVGID_41_"  style="overflow:visible;"/>
														</clipPath>
														<g class="st26">
															<polygon class="st5" points="574.5,519 538.7,478.1 571.4,485.5 															"/>
															<polygon class="st6" points="543.8,532.3 538.7,478.1 574.5,519 															"/>
															<polygon class="st7" points="521.7,507 538.7,478.1 543.8,532.3 															"/>
														</g>
													</g>
												</g>
												<g>
													
														<rect x="400.2" y="420" transform="matrix(8.150215e-02 -0.9967 0.9967 8.150215e-02 -52.0135 827.7012)" class="st3" width="45.7" height="44.2"/>
													<g>
														<g>
															<g>
																<polygon class="st5" points="416.8,464.5 445,428.3 444,456.6 																"/>
																<polygon class="st6" points="400.9,441.1 445,428.3 416.8,464.5 																"/>
																<polygon class="st7" points="418.4,418.8 445,428.3 400.9,441.1 																"/>
															</g>
														</g>
													</g>
													<g>
														
															<rect x="349.8" y="538.6" transform="matrix(0.8912 -0.4537 0.4537 0.8912 -211.8642 226.1105)" class="st3" width="31" height="32"/>
														<g>
															
																<rect x="239.9" y="495.1" transform="matrix(0.9924 -0.1231 0.1231 0.9924 -59.9766 34.2249)" class="st3" width="14.2" height="14.7"/>
														</g>
														<g>
															
																<rect x="161.2" y="615" transform="matrix(0.807 -0.5906 0.5906 0.807 -348.9745 245.9283)" class="st3" width="81" height="83.7"/>
														</g>
														<g>
															
																<rect x="141.9" y="786.9" transform="matrix(0.5625 -0.8268 0.8268 0.5625 -591.2588 469.7887)" class="st3" width="12.8" height="13.3"/>
														</g>
														<g>
															
																<rect x="31.4" y="756.3" transform="matrix(0.9487 -0.3162 0.3162 0.9487 -239.2765 51.085)" class="st3" width="12.7" height="13.1"/>
														</g>
														<g>
															
																<rect x="71.6" y="737.6" transform="matrix(0.441 -0.8975 0.8975 0.441 -635.7097 531.6348)" class="st3" width="74.6" height="77.1"/>
														</g>
														<g>
															
																<rect x="17.7" y="548.4" transform="matrix(0.8366 -0.5478 0.5478 0.8366 -310.784 122.8918)" class="st3" width="65.8" height="68"/>
														</g>
														<g>
															
																<rect x="104.9" y="507.7" transform="matrix(0.994 -0.1095 0.1095 0.994 -58.9792 18.8849)" class="st3" width="75.1" height="77.5"/>
														</g>
														<g>
															
																<rect x="264.1" y="558" transform="matrix(0.8623 -0.5065 0.5065 0.8623 -249.4249 215.9642)" class="st3" width="16.4" height="17"/>
														</g>
														<g>
															
																<rect x="197.2" y="303.4" transform="matrix(0.9274 -0.3742 0.3742 0.9274 -111.9984 114.1428)" class="st3" width="81.5" height="84.2"/>
														</g>
														<g>
															
																<rect x="263.4" y="225.7" transform="matrix(0.7787 -0.6274 0.6274 0.7787 -100.6976 250.0486)" class="st3" width="81.4" height="84.1"/>
														</g>
														<g>
															
																<rect x="391.7" y="254.4" transform="matrix(0.6031 -0.7977 0.7977 0.6031 -64.3276 461.2231)" class="st3" width="79.1" height="81.7"/>
														</g>
														<g>
															
																<rect x="561.8" y="349.7" transform="matrix(0.6575 -0.7535 0.7535 0.6575 -86.709 582.8801)" class="st3" width="71.8" height="74.2"/>
														</g>
														<g>
															
																<rect x="491.7" y="62.8" transform="matrix(0.9592 -0.2829 0.2829 0.9592 -7.6276 154.5116)" class="st3" width="79" height="81.7"/>
														</g>
														<g>
															
																<rect x="657" y="141.5" transform="matrix(0.1065 -0.9943 0.9943 0.1065 441.1195 854.1482)" class="st3" width="77.7" height="80.2"/>
														</g>
														<g>
															
																<rect x="598.2" y="61.7" transform="matrix(0.8156 -0.5786 0.5786 0.8156 57.9329 388.4801)" class="st3" width="80.6" height="83.2"/>
														</g>
														<g>
															
																<rect x="523.4" y="226.4" transform="matrix(0.1094 -0.994 0.994 0.1094 238.0214 800.8372)" class="st3" width="85.1" height="82.4"/>
														</g>
														<g>
															
																<rect x="399.7" y="95" transform="matrix(0.1896 -0.9819 0.9819 0.1896 225.2496 537.7499)" class="st3" width="77.3" height="74.8"/>
														</g>
														<g>
															
																<rect x="375.1" y="258" transform="matrix(0.9992 -3.873444e-02 3.873444e-02 0.9992 -10.7579 15.7754)" class="st3" width="53.3" height="55"/>
														</g>
														<g>
															
																<rect x="288.9" y="298.5" transform="matrix(0.4582 -0.8888 0.8888 0.4582 -120.0609 462.2458)" class="st3" width="60.4" height="62.3"/>
														</g>
														<g>
															
																<rect x="122" y="152" transform="matrix(0.732 -0.6813 0.6813 0.732 -77.7997 139.2364)" class="st3" width="32.1" height="33.1"/>
														</g>
														<g>
															
																<rect x="131.2" y="415.4" transform="matrix(0.5694 -0.8221 0.8221 0.5694 -288.5284 297.5332)" class="st3" width="17" height="17.6"/>
														</g>
														<g>
															
																<rect x="-46.6" y="81.6" transform="matrix(1 -5.939626e-03 5.939626e-03 1 -0.6811 -7.230864e-02)" class="st3" width="68.2" height="66"/>
														</g>
														<g>
															
																<rect x="174.4" y="181.3" transform="matrix(0.1567 -0.9876 0.9876 0.1567 -34.8564 355.8268)" class="st3" width="33" height="34.1"/>
														</g>
														<g>
															
																<rect x="268.5" y="103.9" transform="matrix(0.9806 -0.1961 0.1961 0.9806 -15.9842 55.702)" class="st3" width="9.7" height="9.4"/>
														</g>
														<g>
															
																<rect x="139.5" y="-65" transform="matrix(0.9673 -0.2536 0.2536 0.9673 12.3043 44.1965)" class="st3" width="76.2" height="78.7"/>
														</g>
														<g>
															
																<rect x="2.5" y="97.9" transform="matrix(0.904 -0.4276 0.4276 0.904 -50.4655 23.984)" class="st3" width="51.3" height="52.9"/>
														</g>
													</g>
												</g>
											</g>
											
												<radialGradient id="SVGID_43_" cx="600" cy="446" r="522.001" gradientTransform="matrix(1 0 0 -1 0 800)" gradientUnits="userSpaceOnUse">
												<stop  offset="0" style="stop-color:#FAFBFB;stop-opacity:0.3"/>
												<stop  offset="1" style="stop-color:#FFFFFF;stop-opacity:0"/>
											</radialGradient>
											<rect class="st27" width="1200" height="800"/>
										</g>
									</g>
								</g>
							</g>
						</g>
					</g>
				</g>
			</g>
		</g>
	</g>
</g>
<g>
	<path class="st28" d="M567,294c0-3-2.5-5.5-5.5-5.5c-3,0-5.5,2.5-5.5,5.5c0,3,2.5,5.5,5.5,5.5C564.5,299.4,567,297,567,294z
		 M560.8,294c0-0.4,0.3-0.7,0.7-0.7c0.4,0,0.7,0.3,0.7,0.7s-0.3,0.7-0.7,0.7C561.1,294.7,560.8,294.4,560.8,294z"/>
	<path class="st28" d="M571.6,304.2c-6,0-10.8,4.8-10.8,10.8c0,6,4.8,10.8,10.8,10.8s10.8-4.8,10.8-10.8
		C582.4,309.1,577.5,304.2,571.6,304.2z M571.6,319.6c-2.5,0-4.6-2-4.6-4.6c0-2.5,2-4.6,4.6-4.6s4.6,2,4.6,4.6
		C576.1,317.6,574.1,319.6,571.6,319.6z"/>
	<path class="st28" d="M585.6,289.7c-3.9,0-7,3.1-7,7c0,3.9,3.1,7,7,7s7-3.1,7-7C592.6,292.9,589.4,289.7,585.6,289.7z M585.6,297.5
		c-0.4,0-0.8-0.3-0.8-0.8c0-0.4,0.3-0.8,0.8-0.8c0.4,0,0.8,0.3,0.8,0.8C586.3,297.1,586,297.5,585.6,297.5z"/>
	<path class="st28" d="M663.1,255.4H546.2c-1.7,0-3.1,1.4-3.1,3.1v106.9c0,10.8,8.8,19.6,19.6,19.6h84c10.8,0,19.6-8.8,19.6-19.6
		V258.5C666.2,256.8,664.8,255.4,663.1,255.4z M659.4,369.2l-7.2-7.2l7.7-7.7v11.1C660,366.7,659.8,368,659.4,369.2z M549.3,365.4
		v-11.1l7.7,7.7l-7.2,7.2C549.5,368,549.3,366.7,549.3,365.4z M551.4,347.6l10-10l9.5,9.5v1l-9.5,9.5L551.4,347.6z M570.9,357v10.1
		l-5.1-5.1L570.9,357z M590.2,357.6l-10-10l10-10l10,10L590.2,357.6z M601,355.7l0,12.7l-6.3-6.3L601,355.7z M585.8,362l-8.7,8.7
		v-17.4L585.8,362z M580.2,376.5l10-10l10,10l-2.3,2.3h-15.4L580.2,376.5z M619,357.6l-10-10l10-10l9.5,9.5v1L619,357.6z M628.5,357
		v10.2l-5.1-5.1L628.5,357z M614.6,362l-7.5,7.5l0-14.9L614.6,362z M609,376.5l10-10l9.5,9.5v1l-1.8,1.8h-15.4L609,376.5z
		 M637.8,347.6l10-10l10,10l-10,10L637.8,347.6z M643.4,362l-8.7,8.7v-17.4L643.4,362z M650,331c-1.2-1.2-3.2-1.2-4.4,0l-10.9,10.9
		v-9.1c0-1.7-1.4-3.1-3.1-3.1c-1.7,0-3.1,1.4-3.1,3.1v5.5l-7.3-7.3c-1.2-1.2-3.2-1.2-4.4,0l-9.6,9.6l0-7.8c0-1.7-1.4-3.1-3.1-3.1
		c0,0,0,0,0,0c-1.7,0-3.1,1.4-3.1,3.1l0,6.9l-8.6-8.6c-1.2-1.2-3.2-1.2-4.4,0l-10.9,10.9v-9.2c0-1.7-1.4-3.1-3.1-3.1
		s-3.1,1.4-3.1,3.1v5.5l-7.3-7.3c-1.2-1.2-3.2-1.2-4.4,0l-9.9,9.9v-58H660v58L650,331z M660,261.6v15.1H549.3v-15.1H660z
		 M553.1,374.7l8.3-8.3l9.5,9.5v1l-1.8,1.8h-6.5C558.9,378.7,555.5,377.2,553.1,374.7z M646.6,378.7h-6.5l-2.3-2.3l10-10l8.3,8.3
		C653.7,377.2,650.3,378.7,646.6,378.7z"/>
</g>
<text transform="matrix(1 0 0 1 439.366 488.349)" class="st28 st29 st30">BENBEN LI</text>
</svg>
